<svg width="394" height="360" viewBox="0 0 394 360" fill="none" xmlns="http://www.w3.org/2000/svg">
<path d="M231 90L241 77L325 223H192.465C190.082 227.744 185.171 231 179.5 231C171.492 231 165 224.508 165 216.5C165 208.492 171.492 202 179.5 202C185.171 202 190.082 205.256 192.465 210H302L240 102L196 160L152 102L91 209H129L159 176L213 175L224.808 162.282C224.285 160.785 224 159.176 224 157.5C224 149.492 230.492 143 238.5 143C246.508 143 253 149.492 253 157.5C253 165.508 246.508 172 238.5 172C237.152 172 235.848 171.816 234.609 171.472L219 188H165L133 223H69L152 79L162 92L196 28L231 90ZM171 104L196 136L221 103L196 55L171 104Z" fill="#098ACB"/>
<path d="M29.045 320V256.76H67.268V267.176H40.484V283.079H66.338V293.588H40.484V320H29.045ZM89.0649 320.93C85.2209 320.93 81.7489 319.938 78.6489 317.954C75.6109 315.97 73.1929 313.335 71.3949 310.049C69.6589 306.763 68.7909 303.26 68.7909 299.54C68.7909 295.758 69.6589 292.255 71.3949 289.031C73.1929 285.807 75.6109 283.172 78.6489 281.126C81.7489 279.08 85.2209 278.057 89.0649 278.057C91.9169 278.057 94.5829 278.615 97.0629 279.731C99.6049 280.785 101.775 282.428 103.573 284.66V279.08H115.012V320H103.573V314.42C102.519 315.846 101.217 317.055 99.6669 318.047C98.1169 318.977 96.4119 319.69 94.5519 320.186C92.7539 320.682 90.9249 320.93 89.0649 320.93ZM92.2269 311.351C94.3969 311.351 96.3189 310.793 97.9929 309.677C99.7289 308.561 101.093 307.104 102.085 305.306C103.077 303.508 103.573 301.586 103.573 299.54C103.573 297.432 103.077 295.51 102.085 293.774C101.093 291.976 99.7289 290.519 97.9929 289.403C96.3189 288.287 94.3969 287.729 92.2269 287.729C90.0569 287.729 88.1039 288.287 86.3679 289.403C84.6939 290.519 83.3609 291.976 82.3689 293.774C81.3769 295.51 80.8809 297.432 80.8809 299.54C80.8809 301.586 81.3769 303.508 82.3689 305.306C83.3609 307.104 84.6939 308.561 86.3679 309.677C88.1039 310.793 90.0569 311.351 92.2269 311.351ZM143.438 320.93C140.276 320.93 137.331 320.403 134.603 319.349C131.937 318.233 129.612 316.714 127.628 314.792C125.644 312.808 124.125 310.514 123.071 307.91C122.017 305.306 121.49 302.516 121.49 299.54C121.49 295.634 122.42 292.069 124.28 288.845C126.14 285.559 128.744 282.955 132.092 281.033C135.44 279.111 139.284 278.15 143.624 278.15C147.592 278.15 151.095 278.894 154.133 280.382C157.233 281.808 159.744 283.792 161.666 286.334C163.65 288.876 164.859 291.728 165.293 294.89H153.668C153.234 292.658 152.149 290.891 150.413 289.589C148.677 288.287 146.6 287.636 144.182 287.636C141.888 287.636 139.935 288.225 138.323 289.403C136.773 290.581 135.595 292.069 134.789 293.867C133.983 295.665 133.58 297.587 133.58 299.633C133.58 301.493 133.952 303.353 134.696 305.213C135.44 307.073 136.587 308.623 138.137 309.863C139.687 311.041 141.609 311.63 143.903 311.63C146.259 311.63 148.274 311.103 149.948 310.049C151.684 308.933 152.862 307.383 153.482 305.399H164.921C164.301 308.437 162.999 311.134 161.015 313.49C159.093 315.784 156.613 317.613 153.575 318.977C150.599 320.279 147.22 320.93 143.438 320.93ZM175.661 320V288.194H166.082V278.987H175.661V263.27H187.1V278.987H196.679V288.194H187.1V320H175.661ZM221.082 320.744C216.68 320.744 212.712 319.876 209.178 318.14C205.644 316.342 202.854 313.831 200.808 310.607C198.762 307.383 197.739 303.663 197.739 299.447C197.739 295.293 198.762 291.635 200.808 288.473C202.854 285.249 205.644 282.707 209.178 280.847C212.712 278.987 216.68 278.057 221.082 278.057C225.484 278.057 229.421 278.987 232.893 280.847C236.427 282.707 239.217 285.249 241.263 288.473C243.371 291.635 244.425 295.293 244.425 299.447C244.425 303.663 243.402 307.383 241.356 310.607C239.31 313.831 236.52 316.342 232.986 318.14C229.452 319.876 225.484 320.744 221.082 320.744ZM221.082 311.444C223.624 311.444 225.732 310.886 227.406 309.77C229.08 308.592 230.32 307.104 231.126 305.306C231.932 303.446 232.335 301.493 232.335 299.447C232.335 297.339 231.901 295.386 231.033 293.588C230.227 291.728 228.987 290.24 227.313 289.124C225.701 287.946 223.624 287.357 221.082 287.357C218.54 287.357 216.432 287.946 214.758 289.124C213.084 290.24 211.813 291.728 210.945 293.588C210.139 295.386 209.736 297.339 209.736 299.447C209.736 301.493 210.139 303.446 210.945 305.306C211.751 307.104 212.991 308.592 214.665 309.77C216.401 310.886 218.54 311.444 221.082 311.444ZM250.86 320V278.987H262.392V285.032C263.136 283.544 264.066 282.304 265.182 281.312C266.298 280.258 267.569 279.483 268.995 278.987C270.483 278.429 272.033 278.15 273.645 278.15C274.265 278.15 274.947 278.212 275.691 278.336C276.497 278.46 277.21 278.677 277.83 278.987V290.24C277.086 289.434 276.218 288.876 275.226 288.566C274.296 288.194 273.335 288.008 272.343 288.008C270.545 288.008 268.871 288.597 267.321 289.775C265.833 290.891 264.624 292.348 263.694 294.146C262.826 295.882 262.392 297.68 262.392 299.54V320H250.86ZM278.1 320L303.861 256.76H312.882L338.643 320H326.367L321.066 305.771H295.677L290.376 320H278.1ZM299.211 296.099H317.532L308.325 271.454L299.211 296.099ZM340.879 320V309.584H348.226V267.176H340.879V256.76H366.919V267.176H359.665V309.584H366.919V320H340.879Z" fill="#098ACB"/>
</svg>
